<svg version="1.1" id="Layer_1" xmlns="http://www.w3.org/2000/svg" xmlns:xlink="http://www.w3.org/1999/xlink" x="0px" y="0px"
	 width="100%" viewBox="0 0 1000 667" enable-background="new 0 0 1000 667" xml:space="preserve">
<path fill="#000000" opacity="1.000000" stroke="none" 
	d="
M1001.000000,465.000000 
	C1001.000000,532.657959 1001.000000,600.315979 1001.000000,667.980469 
	C667.718201,667.986938 334.436401,667.986938 1.077297,667.986938 
	C1.077297,445.746796 1.077297,223.493546 1.077297,1.120155 
	C334.210358,1.120155 667.420776,1.120155 1001.000000,1.120155 
	C1001.000000,133.359970 1001.000000,265.720276 1000.595093,398.519653 
	C992.845276,398.046967 990.285522,395.997833 991.297424,388.712799 
	C992.229431,382.003174 988.824280,377.343384 986.340515,372.122528 
	C984.953796,369.207550 980.547241,368.406769 979.409119,370.606995 
	C977.598938,374.106750 975.732300,377.663269 974.630981,381.413574 
	C973.894836,383.920502 973.193176,385.177277 970.408752,385.034058 
	C968.447021,384.933167 966.264526,385.033264 964.531250,385.818024 
	C963.025452,386.499817 961.209961,388.109467 960.918030,389.583679 
	C959.607239,396.202698 957.699219,397.028320 952.174561,393.211029 
	C947.968384,390.304840 943.368591,387.958466 939.239136,384.956787 
	C937.944153,384.015442 936.751404,381.603973 937.010193,380.128113 
	C937.569214,376.939392 939.073792,373.910461 940.357117,370.886353 
	C940.392212,370.803680 943.000916,371.281464 943.222656,371.913910 
	C943.783813,373.515015 943.929504,375.377289 943.772400,377.091919 
	C943.386475,381.303345 944.705078,382.971680 948.610718,382.377655 
	C953.696472,381.604095 958.759399,380.666199 963.807617,379.674469 
	C964.582214,379.522308 965.225586,378.702301 966.758301,377.589478 
	C963.194336,377.299408 960.366638,377.730652 958.218933,376.718658 
	C955.805847,375.581604 954.053101,373.085754 951.910217,371.304779 
	C951.321533,370.815460 950.257202,370.930176 949.597290,370.489166 
	C947.507446,369.092590 945.017883,367.928864 943.579956,366.004700 
	C941.191284,362.808350 938.379089,361.319702 933.653259,361.190796 
	C934.929565,362.823761 935.765015,363.761139 936.451965,364.797058 
	C938.259338,367.522949 937.125610,369.583527 934.328308,369.894348 
	C932.500671,370.097412 930.040527,369.198822 928.650940,367.930908 
	C923.583496,363.307159 922.034973,363.088898 916.005127,365.942108 
	C914.511353,366.648926 911.445435,366.334686 910.516174,365.263306 
	C909.646423,364.260468 910.268311,361.483368 910.936340,359.759369 
	C911.634766,357.957123 913.171021,356.479584 914.938049,354.033844 
	C909.605957,354.286713 905.543884,354.479370 900.575928,354.714996 
	C901.721375,352.323212 902.445618,351.342377 902.646606,350.264038 
	C902.932434,348.730682 903.465576,346.585327 902.715576,345.708374 
	C902.013245,344.887146 899.739929,345.122314 898.225708,345.347778 
	C895.766968,345.713837 893.314453,346.305084 890.958313,347.096436 
	C889.847046,347.469666 888.965759,348.527802 887.980225,349.275574 
	C888.647827,350.148438 889.136719,351.322021 890.013367,351.843231 
	C894.292969,354.387390 898.746399,356.644104 902.976135,359.264160 
	C904.115906,359.970215 905.675659,362.200531 905.368164,362.699921 
	C902.333313,367.627655 902.294922,372.073059 907.616272,375.904480 
	C900.410828,378.288055 898.083862,376.318970 898.575378,370.035431 
	C898.755127,367.737640 898.528015,364.255432 897.094238,363.193756 
	C892.217285,359.582550 886.698425,356.844666 881.470886,353.696625 
	C879.876343,352.736389 877.284973,351.603638 877.207458,350.415558 
	C877.111084,348.939026 878.958740,347.126465 880.312561,345.816376 
	C882.083435,344.102661 884.192505,342.738495 886.296814,341.115479 
	C883.574646,340.101837 881.420959,339.866211 880.118408,338.688873 
	C877.881470,336.666870 876.428528,337.213440 874.651428,339.069122 
	C873.633911,340.131744 872.462280,341.232117 871.138428,341.779480 
	C867.802612,343.158630 867.507263,345.221283 869.078613,348.125916 
	C869.499878,348.904694 869.477173,349.923645 869.679199,350.937561 
	C864.603821,350.357269 863.561157,348.840698 863.980774,343.753113 
	C864.092896,342.393280 863.900146,340.129944 863.145874,339.775909 
	C861.909912,339.195831 859.916687,339.434692 858.566895,340.044983 
	C854.936096,341.686493 855.644470,344.604126 856.612854,347.705383 
	C858.976196,355.274261 857.418030,357.867371 850.097717,359.234253 
	C848.794678,359.477600 847.518677,359.886749 846.247131,360.274780 
	C840.083435,362.155609 833.999878,364.377014 827.736816,365.823486 
	C824.183289,366.644196 821.199829,365.492981 821.263733,360.623138 
	C821.286438,358.893890 820.149292,356.369507 818.755371,355.557068 
	C815.418701,353.612244 811.615112,352.468384 807.856079,350.745117 
	C806.829102,349.929871 805.946167,349.370758 805.063171,348.811646 
	C804.882385,349.205963 804.701660,349.600281 804.520874,349.994598 
	C805.680603,350.329315 806.840271,350.664062 807.997070,351.422424 
	C807.021240,354.321777 806.759155,357.816376 804.942993,359.083588 
	C799.325012,363.003387 793.563049,362.979004 788.548096,356.148285 
	C787.987488,361.243378 788.157410,365.550293 788.472229,369.846588 
	C788.583313,371.361969 789.174194,372.847229 789.224609,374.356964 
	C789.232727,374.598755 786.931274,375.345337 786.747742,375.093414 
	C785.854126,373.866913 785.242004,372.409546 784.685547,370.973724 
	C784.393311,370.219574 784.683044,369.139893 784.242615,368.565796 
	C783.520386,367.624512 782.322693,366.273407 781.499207,366.384247 
	C780.513611,366.516937 779.177979,367.893066 778.961365,368.932312 
	C778.682983,370.267639 779.776550,371.882782 779.516052,373.229828 
	C779.272827,374.487091 777.983276,376.569611 777.237427,376.534302 
	C772.612915,376.315430 767.905579,376.034973 763.431152,374.937500 
	C758.385620,373.699982 753.798279,374.968353 752.740356,379.909790 
	C751.109375,387.528046 744.685425,388.386108 739.467041,388.875854 
	C735.198608,389.276489 729.942505,387.107697 728.727112,381.407074 
	C725.421997,382.439667 722.416687,383.378571 719.411438,384.317505 
	C719.353394,384.699219 719.295410,385.080902 719.237427,385.462616 
	C721.825073,386.467865 724.412781,387.473083 726.984009,388.471924 
	C724.237671,395.434265 721.483521,396.821991 718.739258,392.611816 
	C715.193542,387.171783 710.086853,386.862549 704.703857,387.162445 
	C703.085876,387.252563 701.545654,388.740021 699.969849,389.587341 
	C701.678345,390.519501 703.303650,391.701691 705.121033,392.306488 
	C706.638733,392.811584 709.132507,391.994934 709.894348,392.881042 
	C713.167725,396.688446 717.315552,397.922791 722.002258,398.491699 
	C722.793457,398.587738 723.398315,400.218567 724.089294,401.140259 
	C723.796204,401.702576 723.503052,402.264862 723.209900,402.827148 
	C717.892029,401.420441 712.562256,400.056213 707.262939,398.582886 
	C705.515320,398.097046 702.906677,396.330658 702.320923,396.881714 
	C700.699280,398.407104 699.141174,400.793182 699.000977,402.933563 
	C698.718140,407.252655 697.162598,410.340088 693.228210,412.022858 
	C690.781677,413.069275 688.406982,412.832977 687.757629,409.735535 
	C686.711182,404.743958 683.864685,404.831116 679.911377,406.223358 
	C678.543762,406.705017 676.512268,406.245911 675.126831,405.541901 
	C671.945618,403.925354 669.163086,401.290375 665.848328,400.257721 
	C663.862549,399.639130 660.224854,400.513397 659.020996,402.045593 
	C656.976135,404.648254 659.156921,406.762329 661.818848,408.255219 
	C662.883179,408.852142 663.390869,410.441467 664.151978,411.579041 
	C662.920105,412.193085 661.690796,413.296265 660.455688,413.302948 
	C658.732483,413.312286 656.952820,412.639038 655.292603,412.007446 
	C653.310547,411.253540 651.429138,410.235107 649.504150,409.331238 
	C650.065308,411.653442 650.641113,413.972382 651.167114,416.302490 
	C651.226807,416.566833 651.006348,416.894379 650.772461,417.664337 
	C649.079285,417.463654 647.282837,417.388519 645.548340,417.021118 
	C638.315979,415.489044 638.328613,415.459473 635.305481,422.092621 
	C635.212708,422.296112 634.717773,422.316284 634.408264,422.415894 
	C630.367615,416.738098 627.654602,416.458923 624.298584,421.596405 
	C625.483582,422.444366 627.239807,423.053589 627.745056,424.209564 
	C628.570068,426.096863 628.579529,428.340637 628.933044,430.434021 
	C627.345215,429.870544 625.772278,429.259460 624.165955,428.754944 
	C621.813477,428.016022 619.123291,426.369415 617.176697,426.990204 
	C615.783813,427.434387 615.305603,430.937988 614.573486,433.128113 
	C614.391846,433.671387 615.105225,434.539581 614.893555,435.042175 
	C614.269836,436.523529 613.619263,438.794495 612.546021,439.070221 
	C611.370422,439.372223 609.544373,437.995544 608.309814,436.977081 
	C607.054871,435.941895 606.175354,434.451660 605.131409,433.160736 
	C604.058899,434.324310 602.753601,435.348022 601.955688,436.676514 
	C599.059509,441.498627 595.548889,441.855865 591.855530,437.548187 
	C589.259155,434.519928 587.605957,434.841339 585.542053,438.775452 
	C596.167786,446.283081 598.418579,450.141876 595.153625,455.588470 
	C592.976929,453.180298 591.213074,449.607300 588.584900,448.779816 
	C585.984131,447.960907 582.510864,449.912933 578.745850,450.810303 
	C579.007385,451.089050 578.241577,450.658722 578.177734,450.141693 
	C577.793335,447.030151 577.507996,443.902740 577.307678,440.773071 
	C577.028870,436.417145 574.401611,434.165558 570.476501,433.324432 
	C566.606201,432.495056 563.860107,433.502930 562.461975,437.868713 
	C560.966858,442.537476 557.232483,443.868195 552.448914,442.856079 
	C546.680908,441.635620 544.976257,442.881622 544.845947,448.586670 
	C544.773254,451.768768 543.613464,453.717590 540.514526,454.300812 
	C537.346436,454.897064 534.147034,455.326477 530.154968,455.956116 
	C531.461182,457.965515 532.702087,459.609497 533.621948,461.416901 
	C534.003723,462.166901 534.034241,463.500061 533.595276,464.128418 
	C533.275879,464.585632 531.670166,464.709564 531.072876,464.318237 
	C526.144714,461.089539 525.836365,464.653778 525.438965,468.053802 
	C525.091248,471.029358 524.841187,474.016296 524.478149,477.708405 
	C516.389648,469.707062 522.640076,459.991699 518.601135,451.815826 
	C517.037720,453.650482 515.767090,455.597321 515.206909,457.730713 
	C514.623535,459.952271 514.851074,462.372803 514.503784,464.673096 
	C513.632324,470.445343 512.404419,471.062042 507.393524,468.441376 
	C506.656158,468.055817 505.980011,467.528259 505.211945,467.230530 
	C501.667114,465.856506 499.320129,467.564331 499.430298,471.388855 
	C499.651886,479.078888 498.030457,480.860382 490.994415,480.657562 
	C487.732849,487.659943 486.628326,488.098206 479.809326,484.523132 
	C476.066071,482.560608 475.068390,484.849762 474.312683,487.729797 
	C472.398163,495.025940 470.771301,495.730713 463.370392,493.667023 
	C459.757080,492.659454 455.887085,492.572296 451.069305,491.925720 
	C452.716614,494.140625 453.616364,495.350433 454.516144,496.560211 
	C454.280640,496.977570 454.045135,497.394958 453.809662,497.812317 
	C452.061340,496.988251 450.239838,496.288330 448.581940,495.310913 
	C446.114319,493.856140 436.106903,498.173492 436.001312,500.981903 
	C435.965851,501.925110 437.043121,502.889191 437.542084,503.878815 
	C438.176697,505.137512 439.440826,506.573547 439.215607,507.686737 
	C438.154419,512.932373 436.839111,518.142822 435.291718,523.268372 
	C434.215210,526.834167 434.581818,529.100281 438.347107,530.929871 
	C440.243286,531.851196 441.935822,534.393555 442.547668,536.537598 
	C444.628876,543.830627 446.045532,544.197754 452.213562,539.709351 
	C454.944794,537.721924 458.617004,536.587830 462.014801,536.071472 
	C465.944397,535.474304 470.064819,536.258850 474.060120,535.929871 
	C477.487091,535.647766 480.826141,534.305298 484.253326,534.016907 
	C496.185028,533.013000 508.156403,532.460571 520.076965,531.352112 
	C529.016235,530.520752 537.881714,528.918335 546.814453,527.989441 
	C555.896484,527.045044 565.024231,526.546631 574.125183,525.773254 
	C580.237000,525.253845 586.326050,524.410645 592.445190,524.045959 
	C600.410767,523.571228 608.394897,523.382141 616.373596,523.164307 
	C619.317688,523.083862 622.268982,523.314209 625.217346,523.326904 
	C632.294800,523.357361 639.895630,525.028259 646.350220,523.024841 
	C664.405334,517.420532 681.622803,508.910553 699.845215,504.103516 
	C723.620911,497.831512 747.918152,493.200592 772.234009,489.431549 
	C788.276917,486.944824 804.736145,486.839203 821.029480,486.350647 
	C841.309143,485.742584 860.912292,481.310608 880.613831,477.188263 
	C894.352844,474.313477 908.085754,471.249634 921.961304,469.233276 
	C935.429993,467.276001 949.054688,466.120026 962.652527,465.403046 
	C975.406677,464.730560 988.215332,465.092987 1001.000000,465.000000 
z"/>
<path fill="#030303" opacity="1.000000" stroke="none" 
	d="
M808.000000,351.001221 
	C811.615112,352.468384 815.418701,353.612244 818.755371,355.557068 
	C820.149292,356.369507 821.286438,358.893890 821.263733,360.623138 
	C821.199829,365.492981 824.183289,366.644196 827.736816,365.823486 
	C833.999878,364.377014 840.083435,362.155609 846.247131,360.274780 
	C847.518677,359.886749 848.794678,359.477600 850.097717,359.234253 
	C857.418030,357.867371 858.976196,355.274261 856.612854,347.705383 
	C855.644470,344.604126 854.936096,341.686493 858.566895,340.044983 
	C859.916687,339.434692 861.909912,339.195831 863.145874,339.775909 
	C863.900146,340.129944 864.092896,342.393280 863.980774,343.753113 
	C863.561157,348.840698 864.603821,350.357269 869.679199,350.937561 
	C869.477173,349.923645 869.499878,348.904694 869.078613,348.125916 
	C867.507263,345.221283 867.802612,343.158630 871.138428,341.779480 
	C872.462280,341.232117 873.633911,340.131744 874.651428,339.069122 
	C876.428528,337.213440 877.881470,336.666870 880.118408,338.688873 
	C881.420959,339.866211 883.574646,340.101837 886.296814,341.115479 
	C884.192505,342.738495 882.083435,344.102661 880.312561,345.816376 
	C878.958740,347.126465 877.111084,348.939026 877.207458,350.415558 
	C877.284973,351.603638 879.876343,352.736389 881.470886,353.696625 
	C886.698425,356.844666 892.217285,359.582550 897.094238,363.193756 
	C898.528015,364.255432 898.755127,367.737640 898.575378,370.035431 
	C898.083862,376.318970 900.410828,378.288055 907.616272,375.904480 
	C902.294922,372.073059 902.333313,367.627655 905.368164,362.699921 
	C905.675659,362.200531 904.115906,359.970215 902.976135,359.264160 
	C898.746399,356.644104 894.292969,354.387390 890.013367,351.843231 
	C889.136719,351.322021 888.647827,350.148438 887.980225,349.275574 
	C888.965759,348.527802 889.847046,347.469666 890.958313,347.096436 
	C893.314453,346.305084 895.766968,345.713837 898.225708,345.347778 
	C899.739929,345.122314 902.013245,344.887146 902.715576,345.708374 
	C903.465576,346.585327 902.932434,348.730682 902.646606,350.264038 
	C902.445618,351.342377 901.721375,352.323212 900.575928,354.714996 
	C905.543884,354.479370 909.605957,354.286713 914.938049,354.033844 
	C913.171021,356.479584 911.634766,357.957123 910.936340,359.759369 
	C910.268311,361.483368 909.646423,364.260468 910.516174,365.263306 
	C911.445435,366.334686 914.511353,366.648926 916.005127,365.942108 
	C922.034973,363.088898 923.583496,363.307159 928.650940,367.930908 
	C930.040527,369.198822 932.500671,370.097412 934.328308,369.894348 
	C937.125610,369.583527 938.259338,367.522949 936.451965,364.797058 
	C935.765015,363.761139 934.929565,362.823761 933.653259,361.190796 
	C938.379089,361.319702 941.191284,362.808350 943.579956,366.004700 
	C945.017883,367.928864 947.507446,369.092590 949.597290,370.489166 
	C950.257202,370.930176 951.321533,370.815460 951.910217,371.304779 
	C954.053101,373.085754 955.805847,375.581604 958.218933,376.718658 
	C960.366638,377.730652 963.194336,377.299408 966.758301,377.589478 
	C965.225586,378.702301 964.582214,379.522308 963.807617,379.674469 
	C958.759399,380.666199 953.696472,381.604095 948.610718,382.377655 
	C944.705078,382.971680 943.386475,381.303345 943.772400,377.091919 
	C943.929504,375.377289 943.783813,373.515015 943.222656,371.913910 
	C943.000916,371.281464 940.392212,370.803680 940.357117,370.886353 
	C939.073792,373.910461 937.569214,376.939392 937.010193,380.128113 
	C936.751404,381.603973 937.944153,384.015442 939.239136,384.956787 
	C943.368591,387.958466 947.968384,390.304840 952.174561,393.211029 
	C957.699219,397.028320 959.607239,396.202698 960.918030,389.583679 
	C961.209961,388.109467 963.025452,386.499817 964.531250,385.818024 
	C966.264526,385.033264 968.447021,384.933167 970.408752,385.034058 
	C973.193176,385.177277 973.894836,383.920502 974.630981,381.413574 
	C975.732300,377.663269 977.598938,374.106750 979.409119,370.606995 
	C980.547241,368.406769 984.953796,369.207550 986.340515,372.122528 
	C988.824280,377.343384 992.229431,382.003174 991.297424,388.712799 
	C990.285522,395.997833 992.845276,398.046967 1000.595093,398.979370 
	C1001.000000,403.356903 1001.000000,407.713806 1000.696411,412.429443 
	C998.580078,413.094238 996.767395,413.400360 994.954712,413.706421 
	C995.912964,415.414551 996.687134,417.272858 997.906860,418.767578 
	C998.520203,419.519226 999.943176,419.610229 1001.000000,420.000000 
	C1001.000000,434.687561 1001.000000,449.375122 1001.000000,464.531342 
	C988.215332,465.092987 975.406677,464.730560 962.652527,465.403046 
	C949.054688,466.120026 935.429993,467.276001 921.961304,469.233276 
	C908.085754,471.249634 894.352844,474.313477 880.613831,477.188263 
	C860.912292,481.310608 841.309143,485.742584 821.029480,486.350647 
	C804.736145,486.839203 788.276917,486.944824 772.234009,489.431549 
	C747.918152,493.200592 723.620911,497.831512 699.845215,504.103516 
	C681.622803,508.910553 664.405334,517.420532 646.350220,523.024841 
	C639.895630,525.028259 632.294800,523.357361 625.217346,523.326904 
	C622.268982,523.314209 619.317688,523.083862 616.373596,523.164307 
	C608.394897,523.382141 600.410767,523.571228 592.445190,524.045959 
	C586.326050,524.410645 580.237000,525.253845 574.125183,525.773254 
	C565.024231,526.546631 555.896484,527.045044 546.814453,527.989441 
	C537.881714,528.918335 529.016235,530.520752 520.076965,531.352112 
	C508.156403,532.460571 496.185028,533.013000 484.253326,534.016907 
	C480.826141,534.305298 477.487091,535.647766 474.060120,535.929871 
	C470.064819,536.258850 465.944397,535.474304 462.014801,536.071472 
	C458.617004,536.587830 454.944794,537.721924 452.213562,539.709351 
	C446.045532,544.197754 444.628876,543.830627 442.547668,536.537598 
	C441.935822,534.393555 440.243286,531.851196 438.347107,530.929871 
	C434.581818,529.100281 434.215210,526.834167 435.291718,523.268372 
	C436.839111,518.142822 438.154419,512.932373 439.215607,507.686737 
	C439.440826,506.573547 438.176697,505.137512 437.542084,503.878815 
	C437.043121,502.889191 435.965851,501.925110 436.001312,500.981903 
	C436.106903,498.173492 446.114319,493.856140 448.581940,495.310913 
	C450.239838,496.288330 452.061340,496.988251 453.809662,497.812317 
	C454.045135,497.394958 454.280640,496.977570 454.516144,496.560211 
	C453.616364,495.350433 452.716614,494.140625 451.069305,491.925720 
	C455.887085,492.572296 459.757080,492.659454 463.370392,493.667023 
	C470.771301,495.730713 472.398163,495.025940 474.312683,487.729797 
	C475.068390,484.849762 476.066071,482.560608 479.809326,484.523132 
	C486.628326,488.098206 487.732849,487.659943 490.994415,480.657562 
	C498.030457,480.860382 499.651886,479.078888 499.430298,471.388855 
	C499.320129,467.564331 501.667114,465.856506 505.211945,467.230530 
	C505.980011,467.528259 506.656158,468.055817 507.393524,468.441376 
	C512.404419,471.062042 513.632324,470.445343 514.503784,464.673096 
	C514.851074,462.372803 514.623535,459.952271 515.206909,457.730713 
	C515.767090,455.597321 517.037720,453.650482 518.601135,451.815826 
	C522.640076,459.991699 516.389648,469.707062 524.478149,477.708405 
	C524.841187,474.016296 525.091248,471.029358 525.438965,468.053802 
	C525.836365,464.653778 526.144714,461.089539 531.072876,464.318237 
	C531.670166,464.709564 533.275879,464.585632 533.595276,464.128418 
	C534.034241,463.500061 534.003723,462.166901 533.621948,461.416901 
	C532.702087,459.609497 531.461182,457.965515 530.154968,455.956116 
	C534.147034,455.326477 537.346436,454.897064 540.514526,454.300812 
	C543.613464,453.717590 544.773254,451.768768 544.845947,448.586670 
	C544.976257,442.881622 546.680908,441.635620 552.448914,442.856079 
	C557.232483,443.868195 560.966858,442.537476 562.461975,437.868713 
	C563.860107,433.502930 566.606201,432.495056 570.476501,433.324432 
	C574.401611,434.165558 577.028870,436.417145 577.307678,440.773071 
	C577.507996,443.902740 577.793335,447.030151 578.177734,450.141693 
	C578.241577,450.658722 579.007385,451.089050 578.745850,450.810303 
	C582.510864,449.912933 585.984131,447.960907 588.584900,448.779816 
	C591.213074,449.607300 592.976929,453.180298 595.153625,455.588470 
	C598.418579,450.141876 596.167786,446.283081 585.542053,438.775452 
	C587.605957,434.841339 589.259155,434.519928 591.855530,437.548187 
	C595.548889,441.855865 599.059509,441.498627 601.955688,436.676514 
	C602.753601,435.348022 604.058899,434.324310 605.131409,433.160736 
	C606.175354,434.451660 607.054871,435.941895 608.309814,436.977081 
	C609.544373,437.995544 611.370422,439.372223 612.546021,439.070221 
	C613.619263,438.794495 614.269836,436.523529 614.893555,435.042175 
	C615.105225,434.539581 614.391846,433.671387 614.573486,433.128113 
	C615.305603,430.937988 615.783813,427.434387 617.176697,426.990204 
	C619.123291,426.369415 621.813477,428.016022 624.165955,428.754944 
	C625.772278,429.259460 627.345215,429.870544 628.933044,430.434021 
	C628.579529,428.340637 628.570068,426.096863 627.745056,424.209564 
	C627.239807,423.053589 625.483582,422.444366 624.298584,421.596405 
	C627.654602,416.458923 630.367615,416.738098 634.408264,422.415894 
	C634.717773,422.316284 635.212708,422.296112 635.305481,422.092621 
	C638.328613,415.459473 638.315979,415.489044 645.548340,417.021118 
	C647.282837,417.388519 649.079285,417.463654 650.772461,417.664337 
	C651.006348,416.894379 651.226807,416.566833 651.167114,416.302490 
	C650.641113,413.972382 650.065308,411.653442 649.504150,409.331238 
	C651.429138,410.235107 653.310547,411.253540 655.292603,412.007446 
	C656.952820,412.639038 658.732483,413.312286 660.455688,413.302948 
	C661.690796,413.296265 662.920105,412.193085 664.151978,411.579041 
	C663.390869,410.441467 662.883179,408.852142 661.818848,408.255219 
	C659.156921,406.762329 656.976135,404.648254 659.020996,402.045593 
	C660.224854,400.513397 663.862549,399.639130 665.848328,400.257721 
	C669.163086,401.290375 671.945618,403.925354 675.126831,405.541901 
	C676.512268,406.245911 678.543762,406.705017 679.911377,406.223358 
	C683.864685,404.831116 686.711182,404.743958 687.757629,409.735535 
	C688.406982,412.832977 690.781677,413.069275 693.228210,412.022858 
	C697.162598,410.340088 698.718140,407.252655 699.000977,402.933563 
	C699.141174,400.793182 700.699280,398.407104 702.320923,396.881714 
	C702.906677,396.330658 705.515320,398.097046 707.262939,398.582886 
	C712.562256,400.056213 717.892029,401.420441 723.209900,402.827148 
	C723.503052,402.264862 723.796204,401.702576 724.089294,401.140259 
	C723.398315,400.218567 722.793457,398.587738 722.002258,398.491699 
	C717.315552,397.922791 713.167725,396.688446 709.894348,392.881042 
	C709.132507,391.994934 706.638733,392.811584 705.121033,392.306488 
	C703.303650,391.701691 701.678345,390.519501 699.969849,389.587341 
	C701.545654,388.740021 703.085876,387.252563 704.703857,387.162445 
	C710.086853,386.862549 715.193542,387.171783 718.739258,392.611816 
	C721.483521,396.821991 724.237671,395.434265 726.984009,388.471924 
	C724.412781,387.473083 721.825073,386.467865 719.237427,385.462616 
	C719.295410,385.080902 719.353394,384.699219 719.411438,384.317505 
	C722.416687,383.378571 725.421997,382.439667 728.727112,381.407074 
	C729.942505,387.107697 735.198608,389.276489 739.467041,388.875854 
	C744.685425,388.386108 751.109375,387.528046 752.740356,379.909790 
	C753.798279,374.968353 758.385620,373.699982 763.431152,374.937500 
	C767.905579,376.034973 772.612915,376.315430 777.237427,376.534302 
	C777.983276,376.569611 779.272827,374.487091 779.516052,373.229828 
	C779.776550,371.882782 778.682983,370.267639 778.961365,368.932312 
	C779.177979,367.893066 780.513611,366.516937 781.499207,366.384247 
	C782.322693,366.273407 783.520386,367.624512 784.242615,368.565796 
	C784.683044,369.139893 784.393311,370.219574 784.685547,370.973724 
	C785.242004,372.409546 785.854126,373.866913 786.747742,375.093414 
	C786.931274,375.345337 789.232727,374.598755 789.224609,374.356964 
	C789.174194,372.847229 788.583313,371.361969 788.472229,369.846588 
	C788.157410,365.550293 787.987488,361.243378 788.548096,356.148285 
	C793.563049,362.979004 799.325012,363.003387 804.942993,359.083588 
	C806.759155,357.816376 807.021240,354.321777 807.997070,351.423035 
	C808.000000,351.000000 808.000000,351.001221 808.000000,351.001221 
M448.509094,506.244476 
	C447.678253,510.655853 447.450470,515.415833 441.836090,516.474121 
	C444.433289,519.924316 446.542389,522.726135 448.648285,525.519714 
	C457.369843,521.405884 457.775513,519.545410 451.110229,514.785889 
	C451.829468,512.936584 453.051575,511.136383 453.115784,509.295807 
	C453.199585,506.894470 452.952209,503.743286 448.509094,506.244476 
M989.022461,404.564453 
	C990.072937,403.765686 991.123413,402.966919 992.467957,401.944611 
	C987.621704,399.520782 983.588501,400.645874 981.456604,404.747833 
	C980.900330,405.818146 981.376770,407.425293 981.378967,408.785858 
	C982.698547,408.565979 984.198608,408.663239 985.289856,408.042236 
	C986.525757,407.338867 987.395142,405.991516 989.022461,404.564453 
M977.787415,389.030884 
	C978.352478,392.088074 979.579407,394.996216 983.130920,392.850067 
	C984.357544,392.108795 984.356262,388.737244 984.207275,386.616913 
	C984.148987,385.786926 981.602478,384.212891 981.130249,384.504059 
	C979.739929,385.361237 978.820740,386.982727 977.787415,389.030884 
M887.671936,371.655548 
	C887.771362,370.207336 888.175720,368.679199 887.826965,367.348511 
	C887.678101,366.780670 885.483398,366.028381 885.032532,366.386108 
	C883.165161,367.867554 881.530640,369.676636 880.004456,371.525482 
	C879.698547,371.896088 880.325928,373.626282 880.379456,373.619324 
	C882.378906,373.360809 884.364685,372.987030 886.343079,372.583801 
	C886.640747,372.523132 886.893616,372.242493 887.671936,371.655548 
M870.923218,378.696777 
	C870.422668,377.175934 869.922180,375.655060 869.421631,374.134186 
	C868.698486,374.145874 867.975281,374.157532 867.252136,374.169189 
	C866.823792,377.005615 866.225464,379.833984 866.091003,382.684265 
	C866.058899,383.365692 867.480652,384.424957 868.415833,384.707306 
	C868.857849,384.840729 869.996765,383.666595 870.340271,382.876404 
	C870.784973,381.853363 870.750549,380.622101 870.923218,378.696777 
M901.368225,388.382660 
	C902.450867,390.032318 903.533569,391.681976 904.616272,393.331635 
	C905.016907,393.092712 905.417542,392.853760 905.818176,392.614807 
	C905.818176,391.206360 905.984253,389.771973 905.769775,388.396942 
	C905.569580,387.113495 904.965027,385.893127 904.538513,384.644958 
	C903.488892,385.659637 902.439331,386.674286 901.368225,388.382660 
M811.999939,376.540894 
	C811.545776,377.606262 811.091553,378.671600 810.637390,379.736969 
	C811.548645,379.943695 812.664734,380.572205 813.320740,380.253510 
	C814.196777,379.827942 814.715698,378.667053 815.387939,377.821991 
	C814.434753,377.307007 813.481567,376.791992 811.999939,376.540894 
M873.315613,388.292328 
	C874.941101,392.864227 877.441711,390.020203 879.662354,389.549072 
	C879.710327,389.012268 879.758301,388.475494 879.806335,387.938721 
	C877.768738,387.938721 875.731140,387.938721 873.315613,388.292328 
M847.695496,388.362518 
	C848.647583,387.525360 849.599670,386.688202 850.551758,385.851013 
	C849.898743,385.240295 849.245728,384.629578 848.592712,384.018860 
	C848.164978,385.336670 847.737305,386.654480 847.695496,388.362518 
M633.864258,433.344910 
	C634.364136,434.472717 634.864014,435.600555 635.363892,436.728363 
	C636.059326,435.741455 636.754761,434.754547 637.450195,433.767639 
	C636.364441,433.465973 635.278748,433.164307 633.864258,433.344910 
M800.700134,377.341949 
	C799.853027,378.642822 799.005859,379.943695 798.158752,381.244537 
	C798.858093,381.460815 799.557495,381.677124 800.256836,381.893402 
	C800.570374,380.374451 800.883911,378.855469 800.700134,377.341949 
M929.183350,392.406128 
	C930.377014,392.283508 931.570618,392.160858 932.764282,392.038208 
	C932.200684,391.133942 931.637024,390.229645 931.073425,389.325378 
	C930.349304,390.193298 929.625183,391.061218 929.183350,392.406128 
M854.069824,363.792542 
	C852.740662,363.922546 851.411499,364.052551 849.032043,364.285278 
	C853.013672,366.946747 853.013672,366.946747 854.069824,363.792542 
M960.377075,405.746002 
	C960.577637,404.327118 960.778198,402.908234 960.978760,401.489319 
	C960.304321,401.479950 959.629883,401.470581 958.955444,401.461212 
	C959.328369,402.773682 959.701294,404.086121 960.377075,405.746002 
M755.393982,385.632233 
	C755.788025,386.442108 756.182129,387.251984 756.576172,388.061890 
	C757.114990,387.538513 757.653748,387.015106 758.192505,386.491699 
	C757.382019,386.092377 756.571533,385.693054 755.393982,385.632233 
M770.663757,384.849548 
	C771.000183,384.033600 771.336609,383.217651 771.672974,382.401703 
	C770.947815,382.379150 770.222656,382.356598 769.497498,382.334045 
	C769.735535,383.136444 769.973633,383.938812 770.663757,384.849548 
M605.270935,450.456177 
	C605.822571,450.470306 606.374146,450.484436 606.925781,450.498566 
	C606.711487,449.981384 606.497131,449.464203 606.282776,448.947052 
	C605.894592,449.327911 605.506409,449.708801 605.270935,450.456177 
M979.348450,418.747864 
	C979.865601,418.534790 980.382690,418.321747 980.899841,418.108673 
	C980.520264,417.713837 980.140747,417.319000 979.761230,416.924164 
	C979.535278,417.437714 979.309387,417.951263 979.348450,418.747864 
M914.506470,387.483765 
	C913.818604,387.797302 913.130737,388.110870 912.442871,388.424408 
	C912.732178,388.755859 913.021423,389.087280 913.310730,389.418732 
	C913.822754,388.827454 914.334839,388.236145 914.506470,387.483765 
M970.353455,408.758148 
	C970.418152,408.177216 970.482849,407.596283 970.547546,407.015381 
	C970.128906,407.099640 969.710327,407.183868 969.291687,407.268097 
	C969.521240,407.756439 969.750793,408.244751 970.353455,408.758148 
M844.352722,369.795074 
	C844.742065,369.853088 845.131348,369.911102 845.520752,369.969116 
	C845.441528,369.606262 845.362305,369.243439 845.283020,368.880615 
	C844.950745,369.083984 844.618408,369.287354 844.352722,369.795074 
M727.968689,403.044342 
	C728.225952,402.757111 728.483215,402.469910 728.740540,402.182709 
	C728.470215,402.052490 728.199829,401.922241 727.929504,401.792023 
	C727.852234,402.165710 727.775024,402.539368 727.968689,403.044342 
M925.143982,396.262573 
	C925.237793,395.913055 925.331604,395.563568 925.425354,395.214050 
	C925.143066,395.211395 924.860718,395.208771 924.578369,395.206116 
	C924.673035,395.556580 924.767700,395.907043 925.143982,396.262573 
M948.594421,376.997528 
	C948.674500,377.357574 948.754639,377.717651 948.834778,378.077698 
	C949.095703,377.979828 949.356628,377.881989 949.617554,377.784149 
	C949.366394,377.491821 949.115173,377.199524 948.594421,376.997528 
M949.141968,409.709625 
	C949.395447,409.684998 949.648865,409.660370 949.902283,409.635742 
	C949.867676,409.489563 949.833069,409.343384 949.798462,409.197174 
	C949.563293,409.295898 949.328064,409.394623 949.141968,409.709625 
M941.296204,400.852081 
	C941.503967,400.705811 941.711731,400.559570 941.919495,400.413330 
	C941.817444,400.303436 941.715393,400.193512 941.613281,400.083618 
	C941.457825,400.285126 941.302368,400.486664 941.296204,400.852081 
M563.494812,473.087311 
	C563.389587,473.318604 563.284363,473.549927 563.179138,473.781219 
	C563.322693,473.824341 563.466309,473.867462 563.609863,473.910583 
	C563.641785,473.658020 563.673767,473.405487 563.494812,473.087311 
M879.007629,399.395172 
	C879.219482,399.489410 879.431274,399.583679 879.643127,399.677948 
	C879.685486,399.545563 879.727844,399.413177 879.770203,399.280792 
	C879.537598,399.254852 879.305054,399.228912 879.007629,399.395172 
M450.584229,535.947266 
	C450.558716,535.711792 450.533203,535.476379 450.507690,535.240967 
	C450.371857,535.270020 450.235992,535.299072 450.100128,535.328064 
	C450.193665,535.547852 450.287201,535.767700 450.584229,535.947266 
M889.667725,383.198914 
	C889.499878,383.320709 889.332092,383.442474 889.164246,383.564240 
	C889.253723,383.656250 889.343140,383.748260 889.432617,383.840240 
	C889.555298,383.672760 889.677979,383.505280 889.667725,383.198914 
M663.861572,418.399353 
	C663.972229,418.441986 664.082825,418.484619 664.193481,418.527252 
	C664.115295,418.463257 664.037170,418.399261 663.861572,418.399353 
M494.340271,488.949127 
	C494.462006,488.955719 494.583771,488.962311 494.705505,488.968903 
	C494.609833,488.933533 494.514160,488.898132 494.340271,488.949127 
M485.052216,497.662811 
	C484.988159,497.560547 484.924072,497.458252 484.860046,497.355988 
	C484.885925,497.454895 484.911804,497.553802 485.052216,497.662811 
M789.961853,387.009888 
	C789.961853,387.009888 789.967163,386.969147 789.961853,387.009888 
M530.990051,473.961975 
	C530.990051,473.961975 531.030762,473.967285 530.990051,473.961975 
M511.980011,478.028229 
	C511.980011,478.028229 511.955170,477.995453 511.980011,478.028229 
z"/>
<path fill="#000000" opacity="1.000000" stroke="none" 
	d="
M1001.000000,419.562500 
	C999.943176,419.610229 998.520203,419.519226 997.906860,418.767578 
	C996.687134,417.272858 995.912964,415.414551 994.954712,413.706421 
	C996.767395,413.400360 998.580078,413.094238 1000.696411,412.894073 
	C1001.000000,415.041656 1001.000000,417.083344 1001.000000,419.562500 
z"/>
<path fill="#030303" opacity="1.000000" stroke="none" 
	d="
M808.000000,350.999390 
	C806.840271,350.664062 805.680603,350.329315 804.520874,349.994598 
	C804.701660,349.600281 804.882385,349.205963 805.063171,348.811646 
	C805.946167,349.370758 806.829102,349.929871 807.856079,350.745117 
	C808.000000,351.001221 808.000000,351.000000 808.000000,350.999390 
z"/>
<path fill="#000000" opacity="1.000000" stroke="none" 
	d="
M448.703369,505.997620 
	C452.952209,503.743286 453.199585,506.894470 453.115784,509.295807 
	C453.051575,511.136383 451.829468,512.936584 451.110229,514.785889 
	C457.775513,519.545410 457.369843,521.405884 448.649902,525.523804 
	C446.542389,522.726135 444.433289,519.924316 441.836090,516.474121 
	C447.450470,515.415833 447.678253,510.655853 448.703369,505.997620 
z"/>
<path fill="#000000" opacity="1.000000" stroke="none" 
	d="
M988.723145,404.744324 
	C987.395142,405.991516 986.525757,407.338867 985.289856,408.042236 
	C984.198608,408.663239 982.698547,408.565979 981.378967,408.785889 
	C981.376770,407.425293 980.900330,405.818146 981.456604,404.747833 
	C983.588501,400.645874 987.621704,399.520782 992.467957,401.944611 
	C991.123413,402.966919 990.072937,403.765686 988.723145,404.744324 
z"/>
<path fill="#000000" opacity="1.000000" stroke="none" 
	d="
M977.752258,388.667969 
	C978.820740,386.982727 979.739929,385.361237 981.130249,384.504059 
	C981.602478,384.212891 984.148987,385.786926 984.207275,386.616913 
	C984.356262,388.737244 984.357544,392.108795 983.130920,392.850067 
	C979.579407,394.996216 978.352478,392.088074 977.752258,388.667969 
z"/>
<path fill="#000000" opacity="1.000000" stroke="none" 
	d="
M887.419556,371.859558 
	C886.893616,372.242493 886.640747,372.523132 886.343079,372.583801 
	C884.364685,372.987030 882.378906,373.360809 880.379456,373.619324 
	C880.325928,373.626282 879.698547,371.896088 880.004456,371.525482 
	C881.530640,369.676636 883.165161,367.867554 885.032532,366.386108 
	C885.483398,366.028381 887.678101,366.780670 887.826965,367.348511 
	C888.175720,368.679199 887.771362,370.207336 887.419556,371.859558 
z"/>
<path fill="#000000" opacity="1.000000" stroke="none" 
	d="
M870.922852,379.088623 
	C870.750549,380.622101 870.784973,381.853363 870.340271,382.876404 
	C869.996765,383.666595 868.857849,384.840729 868.415833,384.707306 
	C867.480652,384.424957 866.058899,383.365692 866.091003,382.684265 
	C866.225464,379.833984 866.823792,377.005615 867.252136,374.169189 
	C867.975281,374.157532 868.698486,374.145874 869.421631,374.134186 
	C869.922180,375.655060 870.422668,377.175934 870.922852,379.088623 
z"/>
<path fill="#000000" opacity="1.000000" stroke="none" 
	d="
M901.378967,388.035828 
	C902.439331,386.674286 903.488892,385.659637 904.538452,384.644958 
	C904.965027,385.893127 905.569580,387.113495 905.769775,388.396942 
	C905.984253,389.771973 905.818176,391.206360 905.818176,392.614807 
	C905.417542,392.853760 905.016907,393.092712 904.616272,393.331635 
	C903.533569,391.681976 902.450867,390.032318 901.378967,388.035828 
z"/>
<path fill="#000000" opacity="1.000000" stroke="none" 
	d="
M812.264160,376.408936 
	C813.481567,376.791992 814.434753,377.307007 815.387939,377.821991 
	C814.715698,378.667053 814.196777,379.827942 813.320740,380.253510 
	C812.664734,380.572205 811.548645,379.943695 810.637390,379.736969 
	C811.091553,378.671600 811.545776,377.606262 812.264160,376.408936 
z"/>
<path fill="#000000" opacity="1.000000" stroke="none" 
	d="
M873.504578,388.115540 
	C875.731140,387.938721 877.768738,387.938721 879.806335,387.938721 
	C879.758301,388.475494 879.710327,389.012268 879.662354,389.549072 
	C877.441711,390.020203 874.941101,392.864227 873.504578,388.115540 
z"/>
<path fill="#000000" opacity="1.000000" stroke="none" 
	d="
M847.502563,388.167419 
	C847.737305,386.654480 848.164978,385.336670 848.592712,384.018860 
	C849.245728,384.629578 849.898743,385.240295 850.551758,385.851044 
	C849.599670,386.688202 848.647583,387.525360 847.502563,388.167419 
z"/>
<path fill="#000000" opacity="1.000000" stroke="none" 
	d="
M634.028625,433.103760 
	C635.278748,433.164307 636.364441,433.465973 637.450195,433.767639 
	C636.754761,434.754547 636.059326,435.741455 635.363892,436.728363 
	C634.864014,435.600555 634.364136,434.472717 634.028625,433.103760 
z"/>
<path fill="#000000" opacity="1.000000" stroke="none" 
	d="
M800.948792,377.339233 
	C800.883911,378.855469 800.570374,380.374451 800.256836,381.893402 
	C799.557495,381.677124 798.858093,381.460815 798.158752,381.244537 
	C799.005859,379.943695 799.853027,378.642822 800.948792,377.339233 
z"/>
<path fill="#000000" opacity="1.000000" stroke="none" 
	d="
M929.042236,392.167664 
	C929.625183,391.061218 930.349304,390.193298 931.073425,389.325378 
	C931.637024,390.229645 932.200684,391.133942 932.764282,392.038208 
	C931.570618,392.160858 930.377014,392.283508 929.042236,392.167664 
z"/>
<path fill="#000000" opacity="1.000000" stroke="none" 
	d="
M854.257202,363.987762 
	C853.013672,366.946747 853.013672,366.946747 849.032043,364.285278 
	C851.411499,364.052551 852.740662,363.922546 854.257202,363.987762 
z"/>
<path fill="#000000" opacity="1.000000" stroke="none" 
	d="
M960.225647,405.572296 
	C959.701294,404.086121 959.328369,402.773682 958.955444,401.461212 
	C959.629883,401.470581 960.304321,401.479950 960.978760,401.489319 
	C960.778198,402.908234 960.577637,404.327118 960.225647,405.572296 
z"/>
<path fill="#000000" opacity="1.000000" stroke="none" 
	d="
M755.577515,385.462982 
	C756.571533,385.693054 757.382019,386.092377 758.192505,386.491699 
	C757.653748,387.015106 757.114990,387.538513 756.576172,388.061859 
	C756.182129,387.251984 755.788025,386.442108 755.577515,385.462982 
z"/>
<path fill="#000000" opacity="1.000000" stroke="none" 
	d="
M770.437744,384.795349 
	C769.973633,383.938812 769.735535,383.136444 769.497498,382.334045 
	C770.222656,382.356598 770.947815,382.379150 771.672974,382.401703 
	C771.336609,383.217651 771.000183,384.033600 770.437744,384.795349 
z"/>
<path fill="#000000" opacity="1.000000" stroke="none" 
	d="
M605.194580,450.272949 
	C605.506409,449.708801 605.894592,449.327911 606.282776,448.947052 
	C606.497131,449.464203 606.711487,449.981384 606.925781,450.498596 
	C606.374146,450.484436 605.822571,450.470306 605.194580,450.272949 
z"/>
<path fill="#000000" opacity="1.000000" stroke="none" 
	d="
M979.215942,418.606354 
	C979.309387,417.951263 979.535278,417.437714 979.761230,416.924164 
	C980.140747,417.319000 980.520264,417.713837 980.899841,418.108704 
	C980.382690,418.321747 979.865601,418.534790 979.215942,418.606354 
z"/>
<path fill="#000000" opacity="1.000000" stroke="none" 
	d="
M914.676697,387.564331 
	C914.334839,388.236145 913.822754,388.827454 913.310730,389.418732 
	C913.021423,389.087280 912.732178,388.755859 912.442871,388.424408 
	C913.130737,388.110870 913.818604,387.797302 914.676697,387.564331 
z"/>
<path fill="#000000" opacity="1.000000" stroke="none" 
	d="
M970.166870,408.745605 
	C969.750793,408.244751 969.521240,407.756439 969.291687,407.268127 
	C969.710327,407.183868 970.128906,407.099640 970.547546,407.015381 
	C970.482849,407.596283 970.418152,408.177216 970.166870,408.745605 
z"/>
<path fill="#000000" opacity="1.000000" stroke="none" 
	d="
M844.319458,369.642914 
	C844.618408,369.287354 844.950745,369.083984 845.283081,368.880615 
	C845.362305,369.243439 845.441528,369.606262 845.520752,369.969116 
	C845.131348,369.911102 844.742065,369.853088 844.319458,369.642914 
z"/>
<path fill="#000000" opacity="1.000000" stroke="none" 
	d="
M727.833252,402.978699 
	C727.775024,402.539368 727.852234,402.165710 727.929504,401.792023 
	C728.199829,401.922241 728.470215,402.052490 728.740540,402.182709 
	C728.483215,402.469910 728.225952,402.757111 727.833252,402.978699 
z"/>
<path fill="#000000" opacity="1.000000" stroke="none" 
	d="
M925.003174,396.260010 
	C924.767700,395.907043 924.673035,395.556580 924.578369,395.206116 
	C924.860718,395.208771 925.143066,395.211395 925.425354,395.214050 
	C925.331604,395.563568 925.237793,395.913055 925.003174,396.260010 
z"/>
<path fill="#000000" opacity="1.000000" stroke="none" 
	d="
M948.729248,376.952362 
	C949.115173,377.199524 949.366394,377.491821 949.617554,377.784149 
	C949.356628,377.881989 949.095703,377.979828 948.834778,378.077698 
	C948.754639,377.717651 948.674500,377.357574 948.729248,376.952362 
z"/>
<path fill="#000000" opacity="1.000000" stroke="none" 
	d="
M949.117432,409.601501 
	C949.328064,409.394623 949.563293,409.295898 949.798462,409.197205 
	C949.833069,409.343384 949.867676,409.489563 949.902344,409.635742 
	C949.648865,409.660370 949.395447,409.684998 949.117432,409.601501 
z"/>
<path fill="#000000" opacity="1.000000" stroke="none" 
	d="
M941.221558,400.770142 
	C941.302368,400.486664 941.457825,400.285126 941.613281,400.083618 
	C941.715393,400.193512 941.817444,400.303436 941.919495,400.413330 
	C941.711731,400.559570 941.503967,400.705811 941.221558,400.770142 
z"/>
<path fill="#000000" opacity="1.000000" stroke="none" 
	d="
M563.600281,473.120117 
	C563.673767,473.405487 563.641785,473.658020 563.609863,473.910583 
	C563.466309,473.867462 563.322693,473.824341 563.179138,473.781219 
	C563.284363,473.549927 563.389587,473.318604 563.600281,473.120117 
z"/>
<path fill="#000000" opacity="1.000000" stroke="none" 
	d="
M879.040039,399.299072 
	C879.305054,399.228912 879.537598,399.254852 879.770203,399.280792 
	C879.727844,399.413177 879.685486,399.545563 879.643127,399.677948 
	C879.431274,399.583679 879.219482,399.489410 879.040039,399.299072 
z"/>
<path fill="#000000" opacity="1.000000" stroke="none" 
	d="
M450.482483,535.967407 
	C450.287201,535.767700 450.193665,535.547852 450.100128,535.328125 
	C450.235992,535.299072 450.371857,535.270020 450.507690,535.240967 
	C450.533203,535.476379 450.558716,535.711792 450.482483,535.967407 
z"/>
<path fill="#000000" opacity="1.000000" stroke="none" 
	d="
M889.734192,383.268372 
	C889.677979,383.505280 889.555298,383.672760 889.432617,383.840271 
	C889.343140,383.748260 889.253723,383.656250 889.164246,383.564240 
	C889.332092,383.442474 889.499878,383.320709 889.734192,383.268372 
z"/>
<path fill="#000000" opacity="1.000000" stroke="none" 
	d="
M663.910278,418.367310 
	C664.037170,418.399261 664.115295,418.463257 664.193481,418.527252 
	C664.082825,418.484619 663.972229,418.441986 663.910278,418.367310 
z"/>
<path fill="#000000" opacity="1.000000" stroke="none" 
	d="
M494.379395,488.905945 
	C494.514160,488.898132 494.609833,488.933533 494.705505,488.968872 
	C494.583771,488.962311 494.462006,488.955719 494.379395,488.905945 
z"/>
<path fill="#000000" opacity="1.000000" stroke="none" 
	d="
M484.994934,497.657776 
	C484.911804,497.553802 484.885925,497.454895 484.860046,497.355988 
	C484.924072,497.458252 484.988159,497.560547 484.994934,497.657776 
z"/>
<path fill="#000000" opacity="1.000000" stroke="none" 
	d="
M789.964478,386.989502 
	C789.967163,386.969147 789.961853,387.009888 789.964478,386.989502 
z"/>
<path fill="#000000" opacity="1.000000" stroke="none" 
	d="
M531.010376,473.964630 
	C531.030762,473.967285 530.990051,473.961975 531.010376,473.964630 
z"/>
<path fill="#000000" opacity="1.000000" stroke="none" 
	d="
M511.967590,478.011841 
	C511.955170,477.995453 511.980011,478.028229 511.967590,478.011841 
z"/>
</svg>