<svg version="1.1" id="Layer_1" xmlns="http://www.w3.org/2000/svg" xmlns:xlink="http://www.w3.org/1999/xlink" x="0px" y="0px"
	 width="100%" viewBox="0 0 992 992" enable-background="new 0 0 992 992" xml:space="preserve">
<path fill="#000000" opacity="1.000000" stroke="none" 
	d="
M417.187439,166.739380 
	C425.973236,170.455444 434.359161,174.145996 442.849854,177.577408 
	C447.637848,179.512436 448.684784,178.398819 448.263031,173.205215 
	C447.907532,168.827576 446.549347,164.458450 447.428528,158.925247 
	C459.301422,164.694702 469.329041,172.059418 480.229187,177.836624 
	C491.091522,183.593842 501.886627,189.510025 514.870117,191.321533 
	C497.003571,162.158051 481.120972,132.104248 469.508789,99.766365 
	C483.746887,116.709145 496.812775,134.522827 511.478027,151.006851 
	C526.263977,167.626617 540.907043,184.390671 557.934570,198.979004 
	C547.919006,185.302048 539.325684,170.823303 531.148804,156.112137 
	C522.930298,141.325928 516.919373,125.553596 510.385986,109.666222 
	C513.782166,109.159172 514.442139,111.160896 515.511292,112.493279 
	C542.839478,146.551102 570.801086,180.056488 602.366699,210.338715 
	C611.013611,218.634018 620.221008,226.343613 629.136963,234.360123 
	C645.558350,249.124878 658.395874,266.612091 668.736389,286.067352 
	C675.245728,298.314575 683.095154,309.687164 692.466064,319.967621 
	C693.429565,321.024719 694.798340,321.936462 694.535217,324.057404 
	C692.373047,324.368835 690.120789,324.570221 687.924194,325.034851 
	C683.057312,326.064301 682.115051,327.791931 684.030701,332.464874 
	C686.790100,339.196228 691.373047,344.755066 696.105347,350.130096 
	C705.182190,360.439728 715.277710,369.530792 727.446228,376.206909 
	C733.963135,379.782288 734.903137,382.116852 733.214783,389.331268 
	C729.710632,404.303772 720.786072,415.759583 708.771179,424.803040 
	C699.809021,431.548706 689.730530,436.429108 679.031982,439.875366 
	C677.083618,440.502960 674.628906,441.656555 672.914368,439.681427 
	C671.203491,437.710602 673.280945,435.920288 674.100830,434.260132 
	C683.453918,415.321930 675.882812,399.679169 664.214294,385.138855 
	C652.294983,370.285950 637.005920,359.244873 621.267578,348.808289 
	C609.049561,340.706146 596.638000,332.824615 586.313354,322.257141 
	C577.325256,313.057648 570.696533,301.939697 562.189697,292.308563 
	C539.002625,266.057129 511.483276,246.218155 477.106628,238.251144 
	C454.109009,232.921280 430.308868,232.261459 407.403290,239.320938 
	C386.982758,245.614532 370.009857,257.622040 361.371216,277.941040 
	C350.676392,303.096283 352.786682,327.601532 368.102875,350.720032 
	C383.696503,374.257263 404.884430,391.765350 428.020813,407.272064 
	C451.245148,422.837708 476.694458,434.165771 501.882233,445.952423 
	C530.385925,459.290710 556.316956,476.269409 577.920166,499.281616 
	C595.072693,517.552795 607.926697,538.523010 612.485962,563.483032 
	C614.901489,576.706970 613.709595,590.230347 612.077148,603.655579 
	C608.754578,603.481201 608.976440,601.249512 608.618225,599.639709 
	C606.339600,589.399109 603.574280,579.320007 600.243103,569.349792 
	C593.382385,548.815430 580.091858,533.144775 563.728455,519.720947 
	C536.131714,497.081757 504.526520,481.402802 472.006165,467.389038 
	C439.854889,453.534363 408.132019,438.845215 378.266998,420.439545 
	C368.302460,414.298462 359.491516,406.639252 350.468994,399.251801 
	C344.205872,394.123688 344.072998,394.237549 338.573944,400.354309 
	C336.280121,402.905792 334.416779,405.926025 331.293091,407.553802 
	C328.941620,406.630005 329.148193,404.509918 328.697937,402.863251 
	C325.271637,390.333221 322.020844,377.754669 318.531097,365.242676 
	C316.756653,358.880646 315.908234,358.602020 309.785309,361.341980 
	C306.137054,362.974518 302.556824,364.758545 298.919373,366.415955 
	C297.314026,367.147461 295.721649,368.218567 293.389465,367.288269 
	C293.278900,361.893127 295.222321,356.889557 296.221008,351.765259 
	C298.129730,341.971344 300.399353,332.248352 302.397003,322.470978 
	C303.705505,316.066437 302.916534,315.158752 296.414093,315.155518 
	C292.082489,315.153381 287.751068,315.312531 283.419128,315.356232 
	C281.639587,315.374207 279.755219,315.691010 278.302277,314.263153 
	C277.963837,311.641479 279.772156,310.118073 280.939331,308.423767 
	C288.878357,296.899078 296.970490,285.479797 304.898010,273.947296 
	C308.235779,269.091736 307.863159,268.316711 302.413208,266.132172 
	C297.087433,263.997406 291.185608,263.376068 285.065826,259.844757 
	C298.436615,248.440872 313.353668,240.626556 326.794006,230.072342 
	C322.097778,223.433517 315.107880,219.510559 309.145721,212.822083 
	C327.093628,207.980011 344.891296,206.675171 362.395294,201.193024 
	C359.793335,192.443985 352.496429,186.924164 348.401398,178.627762 
	C355.273132,178.082550 361.187439,179.653152 367.145020,180.209076 
	C377.574799,181.182327 387.940521,182.775040 398.457458,182.863007 
	C402.875122,182.899948 404.224060,181.360184 402.736938,177.171402 
	C401.288757,173.092178 399.961273,168.966278 398.722382,164.818588 
	C398.272247,163.311523 397.201813,161.755875 398.935638,159.138184 
	C404.761139,161.568954 410.796295,164.087189 417.187439,166.739380 
M645.109253,297.712006 
	C645.766296,298.008362 646.162292,299.105072 647.521912,298.166656 
	C640.988403,290.216919 636.009155,281.014374 626.829407,275.468689 
	C629.930725,285.056427 637.607727,290.941895 645.109253,297.712006 
z"/>
<path fill="#000000" opacity="1.000000" stroke="none" 
	d="
M298.935089,797.069641 
	C289.290283,796.864136 280.133850,796.442139 270.983368,796.544983 
	C266.927368,796.590515 265.719696,795.025940 265.689331,791.294189 
	C265.598572,780.139221 265.206696,768.986511 265.140656,757.831665 
	C264.979889,730.676392 264.614258,703.515503 265.020782,676.367249 
	C265.163208,666.857910 260.641449,661.564087 253.126007,657.462830 
	C250.593216,656.080688 247.445572,655.444092 245.932373,652.475891 
	C247.744202,649.779053 250.449478,650.032288 252.805542,650.021851 
	C270.464417,649.943542 288.125549,649.873779 305.782593,650.084778 
	C314.681335,650.191101 315.958801,651.653381 316.114349,660.801697 
	C316.295654,671.461792 316.194305,682.126404 316.288483,692.788452 
	C316.303925,694.537964 315.759430,696.461914 317.654297,698.507568 
	C320.458710,694.926392 323.188934,691.479614 325.876740,688.000061 
	C334.325531,677.062622 342.827515,666.165100 351.158661,655.138672 
	C353.949066,651.445496 357.591125,649.965332 361.949554,649.952942 
	C376.110016,649.912781 390.270813,649.945190 404.431152,650.018982 
	C406.395264,650.029175 408.844788,649.862671 409.923950,651.709229 
	C411.264984,654.003784 409.076294,655.801270 407.837067,657.388123 
	C394.922699,673.925049 381.940125,690.409058 368.899323,706.846558 
	C362.820496,714.508667 362.748169,714.445496 368.048737,722.892822 
	C381.235107,743.907532 394.501312,764.872803 407.562805,785.964844 
	C413.317108,795.257202 412.766846,795.695862 401.776459,796.476501 
	C387.451233,797.493958 373.170105,797.231995 358.857300,796.444824 
	C355.165283,796.241821 352.583344,795.080139 350.641724,791.891907 
	C343.972260,780.940369 337.139679,770.088257 330.423584,759.164856 
	C326.841614,753.338928 326.056641,753.357544 321.568237,758.373779 
	C317.711426,762.684143 315.627991,767.259888 316.119476,773.249878 
	C316.594574,779.039368 316.233917,784.903137 316.130829,790.732361 
	C316.066071,794.393982 314.647430,796.651245 310.393250,796.503357 
	C306.748413,796.376648 303.082489,796.855591 298.935089,797.069641 
z"/>
<path fill="#000000" opacity="1.000000" stroke="none" 
	d="
M463.419006,797.064819 
	C448.489502,797.080444 433.997101,797.252869 419.521210,796.351196 
	C413.947052,796.004028 413.137360,794.576721 415.230103,789.496155 
	C430.954895,751.320374 447.862366,713.630310 462.313629,674.931396 
	C465.459320,666.507507 463.981659,662.747192 456.246979,658.078735 
	C453.054596,656.151855 449.041779,655.607178 446.292389,652.440002 
	C448.562592,649.782715 451.595947,650.077209 454.200775,650.063293 
	C475.859772,649.948242 497.519775,650.052246 519.179382,650.021790 
	C522.478821,650.017151 524.259338,651.485168 525.520813,654.509583 
	C543.789734,698.310486 562.187866,742.057373 580.456238,785.858459 
	C584.483765,795.514954 584.236389,796.186462 573.881104,796.634521 
	C560.741882,797.203003 547.567017,796.945679 534.407715,797.057068 
	C531.610962,797.080688 529.633118,795.923645 528.537109,793.285522 
	C527.898743,791.748840 526.860779,790.329590 526.479370,788.742920 
	C524.365845,779.949707 518.597351,777.459106 510.082062,777.988159 
	C501.621338,778.513977 493.094025,778.084534 484.599243,777.910522 
	C477.722931,777.769714 472.949005,780.023193 470.402771,787.090088 
	C469.112305,790.671631 468.637482,795.473938 463.419006,797.064819 
M495.199432,718.891418 
	C493.399323,724.239685 491.590790,729.585205 489.802582,734.937439 
	C488.866821,737.738342 489.344849,740.223633 492.586578,740.609619 
	C497.623077,741.209351 502.718018,741.139160 508.352783,740.502136 
	C506.396454,730.951477 503.291260,722.624084 498.844757,714.629272 
	C496.751434,715.529724 496.165833,716.929626 495.199432,718.891418 
z"/>
<path fill="#000000" opacity="1.000000" stroke="none" 
	d="
M638.297058,695.999634 
	C638.570984,712.991333 638.820190,729.483521 639.125061,745.974609 
	C639.238586,752.117615 639.875122,752.710205 646.221069,752.740173 
	C663.715759,752.822754 681.205322,752.961731 698.694336,753.626404 
	C703.570618,753.811707 705.235840,755.793030 705.217285,760.225403 
	C705.177612,769.724243 705.339905,779.226013 705.154236,788.721436 
	C705.031311,795.008545 703.738953,795.987183 697.244812,796.267944 
	C662.763916,797.758972 628.266724,796.970154 593.775635,797.111511 
	C588.704834,797.132263 586.835205,794.702942 586.812195,790.152832 
	C586.768433,781.487183 586.813293,772.821106 586.807556,764.155212 
	C586.790649,738.656250 586.830505,713.156921 586.698792,687.658508 
	C586.667847,681.673462 586.087585,675.688782 585.686707,669.708862 
	C585.326599,664.338623 581.159241,661.852905 577.408813,659.108826 
	C574.387390,656.898254 570.762146,655.513062 568.012268,652.528687 
	C570.344666,649.940369 573.303772,650.081238 575.980286,650.061218 
	C592.978210,649.933838 609.983276,649.690125 626.973999,650.050537 
	C637.685303,650.277771 637.121765,652.738220 637.620911,659.525024 
	C638.503113,671.518860 637.947815,683.512390 638.297058,695.999634 
z"/>
<path fill="#000000" opacity="1.000000" stroke="none" 
	d="
M710.029663,754.968018 
	C709.935852,730.473633 709.863892,706.474121 709.725464,682.474915 
	C709.706299,679.150391 709.020813,675.806152 709.231262,672.508545 
	C709.729492,664.700989 704.879089,660.740601 698.992676,657.398254 
	C696.471924,655.966858 693.572632,655.019165 692.142395,652.341187 
	C693.585144,649.706604 695.741943,649.993042 697.661743,649.990845 
	C716.494873,649.969055 735.328247,649.961792 754.161072,650.046936 
	C760.262573,650.074524 760.986694,650.938293 760.989868,657.090210 
	C761.012695,701.256592 761.033203,745.423035 761.042175,789.589417 
	C761.043640,796.653564 760.723877,797.061584 753.797058,796.982178 
	C741.305237,796.838989 728.815735,796.455139 716.323975,796.373779 
	C712.410156,796.348328 710.998108,794.605042 710.924194,790.935547 
	C710.686157,779.110168 710.336853,767.287048 710.029663,754.968018 
z"/>
<path fill="#000000" opacity="1.000000" stroke="none" 
	d="
M227.020905,909.440125 
	C208.929718,916.136902 190.325684,916.567261 171.381851,915.483826 
	C155.931793,914.600220 140.402054,915.090454 124.907425,915.017517 
	C120.219414,914.995422 115.671745,914.037537 111.058655,913.416138 
	C95.384491,911.304749 89.983963,900.001587 89.910408,887.056580 
	C89.842369,875.083374 90.966644,863.115784 90.925278,851.109558 
	C90.821945,821.119629 90.708359,791.124512 91.153801,761.139709 
	C91.534737,735.497559 93.580215,709.935486 96.310020,684.423462 
	C97.619270,672.187622 97.302460,659.735596 99.217873,647.617981 
	C101.382904,633.921021 102.730049,620.240723 103.122864,606.420654 
	C103.140388,605.804077 103.410156,605.194702 103.597343,604.441589 
	C105.308556,605.106995 104.870682,606.454956 104.874573,607.465759 
	C104.932999,622.622559 106.174904,637.736938 106.159492,652.906738 
	C106.079399,731.716125 106.210709,810.525635 106.256935,889.335144 
	C106.262718,899.187561 106.682358,899.599915 116.790726,899.623413 
	C146.447815,899.692444 176.104828,899.795349 205.761917,899.859802 
	C210.289429,899.869629 214.741577,900.409790 219.115479,901.530457 
	C221.825302,902.224792 225.578461,901.842957 224.285187,906.776367 
	C223.849792,908.437195 226.289505,908.174011 227.020905,909.440125 
z"/>
<path fill="#000000" opacity="1.000000" stroke="none" 
	d="
M106.121933,254.000000 
	C106.046616,289.069580 106.542809,323.649078 104.383247,358.183655 
	C97.781898,294.106476 95.263145,230.024338 104.191139,165.026245 
	C105.741104,169.273102 105.932770,172.916443 105.941780,176.589279 
	C106.004616,202.226181 106.062653,227.863098 106.121933,254.000000 
z"/>
<path fill="#000000" opacity="1.000000" stroke="none" 
	d="
M273.892029,912.105591 
	C265.311462,910.158386 256.913605,911.863892 248.233032,910.471375 
	C249.423218,908.335510 251.299911,908.140015 252.648926,908.293762 
	C263.976044,909.585266 274.326172,904.034302 285.273376,903.633484 
	C297.670013,903.179626 310.118805,904.102173 322.542175,904.509460 
	C323.654907,904.545959 324.789154,905.102295 325.839417,905.579834 
	C327.259674,906.225525 328.432220,907.224243 328.293823,908.969482 
	C328.168671,910.548096 326.809967,911.089600 325.579895,911.573120 
	C319.958374,913.782410 314.020599,913.836060 308.408875,912.406494 
	C302.358185,910.865112 296.563202,911.340149 290.667419,912.372620 
	C285.193665,913.331238 279.767181,913.332642 273.892029,912.105591 
z"/>
<path fill="#000000" opacity="1.000000" stroke="none" 
	d="
M102.998154,431.007355 
	C103.001900,426.218231 103.001900,421.926483 103.001900,417.634766 
	C103.557594,417.640320 104.113289,417.645905 104.668983,417.651489 
	C105.331413,456.551697 107.396355,495.447632 103.961159,534.362244 
	C100.839684,500.104156 101.809258,465.805542 102.998154,431.007355 
z"/>
</svg>